<svg xmlns="http://www.w3.org/2000/svg" viewBox="0 0 300 251"><path fill="currentColor" d="M52 9c-1 1-1 3 1 7l1 3 2 4 4 7c3 8 3 8 5 9 2 1 5-1 5-4l-3-6-6-13c-4-9-6-10-9-7zm152 16c-17 2-33 11-39 23 0 2 0 2-8 4l-8 3-14 4-4 1-5 2-4 1-11 3-4-2c-6-4-11-5-19-6-13 0-27 6-38 16-5 4-8 7-12 13l-6 17c-2 9-2 11-2 22l0 14 1 8 4 30 1 3 0 3 1 3c6 31 15 47 28 51 19 7 38-10 48-42l2-10 3-11c2-11 1-10 24-17l9-3 3-1 4-1c22-7 34-10 37-9 3 0 6 3 9 7 13 18 28 33 38 38 15 8 30 6 41-5 8-8 11-16 11-29 0-8 0-12-3-23l-4-13c-2-6-5-16-6-16l-1-2c0-1 0-3-1-3l-1-4-4-7-5-13-9-17c-10-18-24-29-41-32l-15 0zm16 7c12 3 22 9 30 20 4 6 10 17 16 31l6 13 0 2 2 3 2 5 2 5 1 3 1 4 4 12c1 2 1 5 2 5 0 1-9 11-16 16-12 10-28 17-40 18l-3 0-4-4-4-4-2-3-8-10c-9-12-12-12-32-7l-4 1-2 1-3 1-5 1-8 3-6 1-6 2c-27 8-28 9-31 25-1 2-1 4-2 4l0 2 0 1c-1 1-1 3-1 5l-2 5-1 4c0 1-1 2-5 3-12 4-23 4-34 0-10-3-25-13-25-16l0-3-3-16-1-7c0-3 0-7-1-9l-1-9c-1-17 0-33 4-42 4-9 10-18 17-22l2-2 3-1c16-11 33-11 44-2 2 1 4 1 10 0l3-1 16-5 7-2 7-3 11-3c8-2 9-3 10-5 5-10 15-17 29-20 6-1 15-1 21 0zm68 115c2 14-1 24-9 32-12 12-27 11-43-1-5-4-5-4-2-5l6-1 3 0c13-4 32-16 41-27 3-3 3-3 4 2zm-237 51c4 3 14 8 17 8l1 1 10 2c7 0 15-1 21-3l3-1c0 1-2 6-5 10-5 10-14 18-22 19-13 2-23-9-30-36-1-5-1-4 1-3l4 3zm156-154l-4 1c-21 3-36 23-33 46 3 23 20 42 39 44 33 3 56-22 49-53-3-9-9-20-15-25l-4-3c-7-6-23-11-32-10zm9 7c26 3 42 28 36 53-3 9-9 17-18 21-16 8-36 5-46-8-4-4-4-5-6-9-16-31 3-62 34-57zm-8 10c-13 3-11 21 2 21 7 0 13-7 11-14-2-5-8-9-13-7zm5 6c2 1 3 4 2 6-2 5-9 4-10-1-1-4 4-8 8-5zm17 10c-9 4-8 18 3 20 8 2 15-7 12-15-3-5-9-8-15-5zm7 5c3 1 4 5 2 7-4 6-12 1-9-5 1-3 4-4 7-2zm-46 4c-10 5-8 20 4 21 6 1 11-5 11-11 0-7-8-13-15-10zm7 6c3 1 3 4 2 6-3 6-11 4-10-3 1-3 5-5 8-3zm18 10c-11 4-8 21 4 21 11 0 15-15 5-20-2-2-6-2-9-1zm6 5c5 2 4 9-1 10-4 2-8-4-5-8 2-2 4-3 6-2zm-137-26c-25 3-43 22-43 46 0 24 17 41 39 41l14-2 3-1c4-2 11-7 14-11 19-23 13-60-10-70-5-2-13-3-17-3zm7 6c11 2 19 8 23 18 4 10 4 25-1 35 0 1 0 2-1 2-1 3-4 8-7 10-9 10-21 13-35 9-10-2-20-14-22-25l-1-3 1-13c3-17 16-30 33-33l10 0zm-16 13c-4 2-6 3-7 5-1 3-1 3 1 10 1 3 1 3-4 5-8 3-9 5-6 16 2 5 5 7 9 6l1 0 3-1 3-1 2 5c2 8 5 9 14 6 8-3 10-5 7-14-1-4-1-3 4-5 7-2 9-5 6-14-2-8-5-10-11-8l-2 0-1 1c-2 1-2 1-5-6-2-6-5-8-14-5zm10 8l1 5c1 4 4 5 9 3 6-2 6-2 8 5 1 4 1 5-5 7-6 1-7 3-6 8 3 9 3 8-3 10-6 2-6 2-7-5l-3-5c-1-1-3-2-7 0-6 1-6 1-8-3-2-7-2-7 4-9l7-3c1-2 1-2 0-4l-1-4-1-3c-1-2 0-3 4-4 6-2 6-2 8 2zm75 6c-6 2-7 3-7 7 0 5 4 7 11 5 6-2 8-4 8-7 0-6-4-8-12-5zm6 5c0 0-5 3-7 3-1 0-1-2 0-2 5-2 7-3 7-1zm-30 1c-8 3-10 5-8 10 2 4 5 4 11 2 6-1 8-3 8-7 0-5-4-7-11-5zm5 5c1 1 0 1-4 2-3 2-4 2-4 1 0-1 0-2 4-3 4-1 4-1 4 0zm-117-90c-3 2-2 4 4 8l6 4 3 3 5 3c6 4 8 4 9 2 1-3 0-4-3-6l-5-4-5-3c0-1-3-2-5-4-6-4-8-5-9-3zm-15 32c-4 3-2 7 3 7l5 1 11 1 4 1c3 0 5-1 5-3 0-3-1-4-6-4-1-1-5-1-7-1l-4-1-4 0-5-1-2 0zm193 116l-7 4c-4 3-6 5-4 7 2 3 3 2 8-1l4-3c9-6 9-6 9-8 0-2-1-3-3-3l-7 4zm22 12c-2 1-13 23-13 25 0 2 3 4 5 2 2 0 13-23 13-25 0-2-4-4-5-2zm21 10c-1 1-1 4-1 8l2 11 1 4c0 3 3 4 6 2 1 0 1-3 0-9l-2-7c-1-8-1-8-2-9-1-1-3-1-4 0z"/></svg>
