<svg xmlns="http://www.w3.org/2000/svg" viewBox="0 0 473 314"><path id="p" fill="currentColor" d="M163 8c-6 2-7 6-1 7 3 0 7 2 7 2l-3 0c-12-3-32 4-26 8l1 1-3 2c0 0-7 4-8 6-3 3-4 7-2 7 1 0 1 0-1 2-2 2-4 7-4 9-1 2 1 4 3 2 1 0 1 0 0 2-2 4-3 8-1 9 0 1 2 1 2 1l0-1 1 2 0 3-1 3c-6 6-6 18 0 26l1 3c0 4 3 7 7 5 1 0 1 0 2 3l0 4-2 0c-4 1-6 2-10 5l-4 4-3 2-5 2-8 2-6 2-1 0-1 0-1 1-1 0-1 0-1 1-1 0-1 0-1 1-1 0-1 0-1 0-16 7c-11 5-18 12-21 21l-2 4-5 1c-20 3-29 12-28 27 1 1 2 11 3 22 4 35 5 37 4 40l-1 7 0 4-7 0c-7 0-8 0-8 2 0 3 0 3 9 3l7 0 1 2c2 5 7 8 13 9 2 0 2 0 2 2 0 7 8 10 23 10 17 0 24-3 24-12l0-3 2 0 4 1c2 2 6 2 10 2 3-1 4-1 5 0 5 1 13 1 16 0 1-1 3-1 10-1 19-1 27-2 63-7 6-1 6-1 6 0 1 1 2 3 5 4l19 5 1 0 1 0 1 1 1 0 1 0 1 1c0-1 0 0 1 0l1 0 1 0 1 1 1 0 57 17c15 4 11 4 54-3l15-3 44-8 14-3 4-3 1-2c3-1 6-5 7-9l1-3c0-1 1-1 16-1 18 0 18 0 18-3 0-2 0-2-17-2-15 0-16 0-15-1l6-28 0-3 11-43c6-28 6-27 4-30-2-2-1-2-31-5-2 0-2 0-2-2 1-3 0-8-3-11l-2-2 1-2c5-4 6-13 2-17l0-4c1-10-2-15-14-20l-3-3-1-2c-1 0 0-1 0-3 1-2 1-2 3-2 4 0 9-5 9-9 0-6-4-10-9-10-9 0-13 9-8 15l1 2-2 5-2 1-6-1c-13-3-21 0-25 7l-2 1c-9 2-14 16-9 23 2 1 2 2 2 3 0 3 1 6 3 8l2 3-3 1-1 0-4 5-2 2-2 3c-2 2-1 2-13 1-16-2-17-1-22 15l-12 47-5 21-13-1c-11-2-11-2-12-4-1-1-3-4-6-5l-2-2c0-3-2-7-5-9-3-2-3-3-4-7-1-4-2-7-5-10-2-2-2-2-2-5-1-4-1-6-4-8l-1-2-2-5c-8-21-13-24-39-34-8-2-8-3-4-7 5-5 8-10 11-18l1-1c5 0 13-14 13-22 0-2-1-4-3-6-1-1-1-1 0-3l2-2c2 0 3-3 4-7 1-2 1-3 1-2 3 2 5-6 3-13l1-1c3 0 1-9-4-14l-1-1c3-2-6-10-13-13l-2-1c0-1 1-1 1 0 4 1 6 1 6-1 0-2 0-3-2-4-7-6-16-7-23-4l-2 1-1-1c-4-7-16-11-26-9zm7 20c1 0 1 0-2 2-7 3-13 10-17 17-1 3-2 3-2 3-3 0-1-5 4-12 5-6 15-13 17-10zm30 4c5 4 11 16 10 20-1 1-2 1-3-1-2-8-4-12-9-17-2-2-3-3-2-4l4 2zm21 15c3 4 4 12 2 11-1 0-1 0-1-2l-2-6-1-4c0-2 0-1 2 1zm-35 8l2 6c1 6 3 5 4-2l0-3 3 5c3 6 3 7 5 5 1 0 1-4 0-8l-1-4c0-1 0-1 1 1 2 3 4 8 4 11l1 4c1 1 3-1 4-4 0-2 0-1 1 3 0 3 1 4 2 4l1-1c1-2 0 5-2 14l-5 16c-3 10-5 15-10 21l-11 11-2 1-1 1-2 1-1 0c-1-1-1-1-2 0 0 1 0 1-1 0 0-1-1-1-1 0 0 1-1 1-2 0 0 0 0-1 0 0-1 0-2 1-2 0 0-1-1-2-2-1 0 1-1 1-2 0 0-2-1-2-1-1l-2-1-2-1-5-3c-3-3-4-4-5-3-1 1-1 2 4 7 7 6 12 9 19 9l3 0-2 5c-3 6-4 9-1 9 1 0 2-1 4-6 3-6 3-6 3-3-1 6-5 12-10 14-8 4-21 1-29-8-5-5-6-8-7-14 0-5 0-5 1-6l3-12c1-5 1-5 3-3l5 6c3 0 2-2 0-5-4-6-6-11-7-17-1-4-1-5-4-3-1 0-3 0-2-1 1-1-1-4-3-3-4 2-6-15-2-19 4-4 8-1 9 6 0 4 1 5 2 5l2-1 1-5 6-17c0-1 0-1 1 0 1 2 4 0 9-6 4-3 4-3 1 2l-1 3c2 3 8-2 12-10l2-3-2 9-1 3c3 3 10-7 11-16l0-1c0-1 3 6 4 9zm222 19c3 3 1 7-2 7-2 0-3-1-4-3-2-4 3-7 6-4zm-191 16c0 3-2 7-4 11-2 3-4 5-3 3l2-6c1-5 2-6 3-8 1-1 1-1 0-1l0-2c1-2 2 0 2 3zm171 4l15 6c10 5 13 8 13 13 0 3-1 3-3 3-8 1-14 13-10 21 2 2 2 2-1 3-2 1-11 2-13 1-1-1-1-1 0-1 5 0 7-3 10-11 4-14 5-17 0-21-4-5-20-11-28-11l-1 0 1-1c3-3 9-3 17-2zm-255 6c-1 1-1 3 1 3 1 0 1 1 0 1-3 0-4-2-2-5 1-1 1-1 1 1zm245 3c10 3 19 7 19 11 1 2-3 16-5 19-2 3-5 3-12 1l-4 0-1-1-1 0-1 0-1-1-1 0-7-4c-5-3-5-4-2-14 4-13 5-14 16-11zm-19 6l-2 6c-1-1 0-8 2-10 2-2 2-2 0 4zm-223 12l-2 3-2 5c-1 2-1 3-2 3 0-1-3-1-3 0-1 0-1-1 0-4 1-4 2-6 5-7 3-2 4-2 4 0zm280 1c3 2 3 7 0 11-4 6-11 3-9-5 2-5 6-8 9-6zm-294 9c0 1 0 2-2 3-2 1-2 1-1-2l4-4-1 3zm-9 2l-1 4-2 4-5 1-5 1 0-1-3-3-1-2 14-4c2 0 3-1 3 0zm17 2l2 2 0 6c1 3 1 3-2 3-2-1-3-1-5 0l-2 0 1-5c1-6 1-6 5-6l1 0zm-10 7l-1 5-6 2 1-5c2-5 2-5 4-6l2-1c1 0 0 3 0 5zm75 2l4 6 1 2-2 0-7 4-1 2 0-2-3-11-1-3 0-1 2-2 2-2 1 1 4 6zm171-6l-1 1-1 2-1 1-2-1c-2-1-3-1-2-2 2-1 6-2 7-1zm-272 3c3 3 3 4 0 5l-4-1-4-2-2-2 4-1c4-1 4-1 6 1zm279 0c7 3 19 5 24 5 3 0 3 0 1 1l-3 3c-2 2-5 2-7 0 0-1-1-2-6-3-8-2-10-2-10 1l-2 1c-3 0-4-2-2-6 2-3 2-3 5-2zm42 2c2 2 4 5 3 7 0 4-3 4-5 1l-2-3-2-1 2-1c2-1 3-2 1-3-1-1-2 0-5 2-2 1-2 1-2 0l1-1 2-2c1-1 4-1 7 1zm-331 2c4 3 4 3 1 5-3 1-4 2-4 1l-8-2-4 0 5-3c6-3 5-3 10-1zm120 0c7 2 19 8 17 8l-4-1-8-2-4-1c-1 0-5-6-4-6l3 2zm-97 5l-2 5-1-4c-1-2-2-4-1-4 0-1 5-2 5-2l-1 5zm253-4c5 4 3 11-3 11-6 0-8-8-3-11 2-1 4-1 6 0zm-260 5c3 8 3 10 3 13-2 8 1 9 12 5l7-2c1-1 1 5 1 16 1 9 1 9 0 9l-6-1c-5-1-4-1-5-7 0-8-1-12-3-12-2 0-2 1-1 6 1 9 1 11 0 11-3 0-4-1-5-4-2-11-8-22-15-28l-3-4 2-1 11-4c1 0 1 1 2 3zm32-1l2 4 2 12c1 2 1 3 0 6-2 4-2 4-5 2-3-2-3-3-1-7 2-4 2-5 1-6-2-2-4-2-19 4l-4 1 3-10c0-2 0-2 3-3 2-1 4-2 4-1l-1 4c0 5 0 6 2 5l2-7c1-4 1-5 7-5l4 1zm206 1l8 1 0 2 1 3 1 1-11-1c-15-1-13-2-17 11l-3 11-11 43-2 9c-1 0-3-1-3-2l5-19 6-24 3-11c3-12 6-19 7-21 1-4 3-4 16-3zm69 1c4 2 4 8 0 11-4 3-10 0-10-5 0-5 6-9 10-6zm-335 1l-2 3-2 6c-1 3-1 3-4 3-3 1-6 1-9 3-2 1-2 1 0-4 3-6 5-9 9-10l8-1zm146 3l5 1 3 1c2 0 2 1 1 6-1 5-1 7-1 4 0-6-4-7-4-2l-1 3-3 0c-3 0-3 0-3-2-1 0-3-4-4-7l-4-6c0-1 7 1 11 2zm-139-1l8 7-1 8c0 1-1 0-1 0l-11-4c-4-1-4-1-2-5l4-7 3 1zm301 0l9 1c3 0 3 0 3 2l0 3 0 1c0 1-28-2-28-2l1-2 2-2c0-2-1-2 13-1zm-195 4l-1 6-5 4-1 1c-1 1-6 4-9 4-5 1-13 0-19-3-4-2-4-2-5-1-2 4 11 9 21 9 7 0 12-3 17-7l2-2 0 6c0 21 0 34 1 45l1 6-1 1c0 3-5 12-9 16l-2 4 0 1c-4 0-21-2-29-4-4 0-4 0-1-13 5-28 5-37 0-55-3-7-4-11-5-17l-1-2 3 2c10 9 25 12 34 6 4-3 8-8 8-10l1-1 0 4zm17-3l7 11-4-1c-5-2-6-2-9 0-1 2-1 4 1 7 3 4 3 4 0 7l-2 2-2-3-3-3 0-7c0-7 0-7 1-8 3-5 7-6 11-5zm223 3l26 3c1 1 2 0-5 30l-4 17-3 11-11 46c-1 8-2 9-3 10-1 1-1 1-1 0 0-3-2-4-13-7l-16-4c-4-2-17-5-29-8l-30-7-9-2-1-3-1-3c-2-1 0-1 4 0l15 4 48 11 31 8c1 0 2-2 3-4l7-30 7-32 4-16c3-13 3-13 2-14-1-1-18-3-29-4-4 0-4 0-3-2l1-3c0-1 0-2 2-2l8 1zm-74 5l32 3c9 0 14 1 15 2 3 1 5 1 7 0l19 2 17 2c0 0 1 0 0 0l0 1-11 48-5 23-4 14-16-4-41-10-34-7-11-3-6-2-4-2 11-45 4-16 3-8c0-1 0-1 3-1 1 1 11 2 21 3zm-117 8l1 3 1 1 0 1 0 1c1 1 1 2-1 5l-6 8c-3 3-4 6-4 5-1 0 2-12 4-22l2-9 1 2 2 5zm-141 0l3 6-1 0-3-3c-3-2-3-3-2-7 0-1 0-1 3 4zm-28-2l-2 6-1 6-2 1-6 1c-4 2-3 5 2 3 5-1 5-1 5 2 0 5 0 11 1 12 2 2 3 0 3-4 0-2 0-10 1-10 1-2 19 4 19 6l1 5 0 5-2-1c-4 0-5 0-5 2 0 1 1 2 5 3l4 1 1 6 1 6-2 0c-6 1-10 3-10 4-1 2 0 3 4 1 5-1 9-1 9 0 1 1 0 1-1 2-6 3-9 7-5 8l4-2 3-2 3 1 2 2 3 1c0 1-2 1-3 2l-7 6-4 4 0-3-2-5c-1-2-4-4-4-3l-1 0c0 0 0-1-1 0l0-1-1 0-1 0-1 0-1 0-2-1-2 0-16 0-2 0-2 1c0 0-2 0-2-1-2-3-3-10-1-19l1-6-1-5c-2-7-2-10 1-15l2-8c2-7 2-7 6-9 3-2 10-3 9-2zm9 0c4 1 11 5 11 6l0 6 0 5-1-1-3 0 0-1-1 0-1 0-1 0 0-1-1 0-1 0c-1-1-1-1-1 0l-1-1-1 0-1 0-1 0-1 0-2 0-2-1 2-10c1-3 1-3 6-2zm136 3c1 0 1 0 3 7 1 9 1 9 0 9l-12 3-1-3c0-1-1-2-2-1l0 1c-1 0 0-3 2-5 5-6 5-7 3-11l-2-3 4 2 5 1zm-165 5c0 4-2 8-3 11-2 5-2 9-1 16 1 4 1 4 0 11-1 9-1 12 1 17 1 3 1 3-1 4-2 1-3 3-3 5 0 2-1 2-2 2-1 0-1 0-1-4l-2-15-2-17-1-12c-3-19-2-21 13-24l4-1-2 7zm176-1c0 5 0 10-1 11l-1 0c-1 0-1 0-2-3l-1-8-1-4 3 0 4 0-1 4zm-81 1c1 4 1 4-1 1-2-2-2-2-1-3 1-2 1-2 2 2zm-9 2l3 2 0 6c0 7 0 7-1 7l-3-1-2-1 0-7-1-8c0-1 0-1 4 2zm-37 2c5 5 5 5 6 11 1 7 1 7-2 4l-6-5-3-3 0-5c0-7 0-7 5-2zm97 7l-2 4 0-3 0-6 1-3 2 2 1 2-2 4zm-167-3l1 14c2 10 3 17 4 31 2 14 2 14 1 14l-1 1c-2 1-2 1-3-6l-1-11c-5-39-5-41-2-46 1-2 1-2 1 3zm217-2l0 3-3 10-4-7c0-1 5-7 6-7l1 1zm-100 5c3 4 3 7 2 17 0 8-4 32-5 32 0 1-1 0-2 0l-2-1-1 0-1-1 1-5 1-7 0-4 1-1 1-9 1-9c0-2 1-2 1-1 0 1 2 2 3 1 3-1 2-6 0-7l-3 2 0 1c-1 0-1-1-1-2l1-5 0-4 3 3zm56 4l-1 0c-2 0-2 0 0-2l1-2 0 2 0 2zm23 0l-1 4 0 2c-1-2-1-7 0-7l1 1zm-112 0c1 0 1 2 0 8 0 8 0 8-1 8-1 0-1 0-1-3l-1-13c0-1 0-1 3 0zm107 2l0 6 0 6 1 4-5 1c-8 2-7 3-8-3l-1-9c-1-3-1-4 0-4l12-3 1 2zm19 2c2 4 2 4 0 7l-4 5-5 5c-4 4-4 4-3-2 0-4 1-5 7-14l3-4 2 3zm-115-2c5 1 5 1 4 8-1 9-2 11-3 11l-4-2c-5-1-5 0-4-8l1-7c0-3 0-3 1-3l5 1zm128 3c1 2 1 2 0 2l-6 2 1-3 2-4c0-2 2 0 3 3zm-151 3c3 3 5 7 5 8 0 1 0 1-3-1l-5-2-3-2 0-4c0-2-1-4 0-4 0-1 4 3 6 5zm102-3l2 17-7 1c-2 0-2 0-2-7-2-10-1-12 6-12l1 1zm-67 0c2 1 2 1 1 8l-1 9 0 2-6-2 1-7 1-8c0-2 0-3 1-2l3 0zm119 8c0 3 1 4 4 6l3 2-3 0-5 0c-1 1-1 0-2-1l-3-4c-3-3-3-3 0-4 4-1 5-1 6 1zm-7 8c1 2 1 2-3 3l-5 3-3 2-1-3-2-2c-1-1 1-3 5-6l2-2c1-1 4 0 7 5zm-149-2c6 3 12 8 12 10 0 1-1 0-3 0l-6-2c-3 0-3 0-4-4l-1-5c0-1 0-1 2 1zm22 5l4 1-2 10c-1 3-2 3-3 1l-2-2-1-3-1-3c-1-3-1-6 0-6l5 2zm100 0l-1 10c-1 7-1 7-3 7l-3 1-3 1c-1 0-2-17-1-18l3-1 5-1c2-2 3-1 3 1zm40 1l-3 1c-2 1-2 1-3 0 0-1 1-1 4-1 2 0 3 0 2 0zm-129 2l3 1c0 0-2 13-3 13 0 1 0 1-1 0l-3-2c-2-1-2-1 0-8l1-5 3 1zm74 5l0 9 0 3-2 1c-4 0-5 0-5-1l-2-16c0-1 2-1 4-1l4-1 1 6zm27-4l2 3-3 2c-2 2-6 8-7 11-1 3-1 2-1-1 1-10 1-10 5-15 2-3 2-3 4 0zm19-1l0 1-7 5-2 2-2-1-1-2c4-2 9-5 11-5l1 0zm15 3c4 2 4 2 0 2-3 1-3 1-4-1l-2-1 2 0c1-1 3-1 4 0zm-8 2c2 2 2 2 0 3l-5 4-3 3-2-1c-3-2-3-3-2-4l10-6 2 1zm-20 4l1 2-2 3-3 5c-1 3-1 3-3 4l-4 1c-2-1 1-9 7-14 2-3 2-3 4-1zm-126 0c2 2 3 2 1 2l-3 2c-3 1-3 1-4 0-1-1-2-2-4-2-2-2-2-2 1-3l9 1zm163 2l5 1 1 0-1 1c-2 0-7 3-9 6l-2 1-7-1-8-1 6-5c4-3 7-3 15-2zm-27 6c0 1-1 1-1 0l-8 3 0-1c1 0 1-1 1-2l2-2 1-1 2 1 3 2zm59 0c9 4 8 4 11 9l5 13c-1 1-2 1-3 0l-2-4c-5-10-7-12-12-15-7-5-7-5-8-4-2 2-1 3 4 6 6 4 6 4 10 12 3 6 3 7 2 8-1 0-2-1-6-7-5-6-5-7-10-8-5-3-5-3-6-1-1 1-1 1-3-1-2-1-3-1-4 0-1 2 2 5 8 8l5 5c-1 2-2 2-7-1l-6-2-4-4-4-5-3-3c0-1 8-6 10-7l2 0c0-1 1-1 1 0l0-1 2 0 2 0 1-1 3 0 2 0 3 0c2 0 3 0 7 3zm-187-2l1 0 2 0 2 1 0 1c-2 0-9 5-13 10l-2 3c-1 0-8-3-8-4 0-1 3-5 5-6 3-3 12-7 13-5zm72 2l1 5c1 7 1 7-2 7l-5 0-2-1 2-3 4-6c2-4 2-4 2-2zm128 1c3 2 10 17 9 19-1 1-2-1-4-4-2-7-6-15-8-15 0-1 2 0 3 0zm-103 2l0 4c-1 4-1 4-5 4l-2 1 0-4 0-5 3-1c5-1 5-1 4 1zm-138 0c4 0 4 1 1 1-5 1-19 1-25 1-6-1-7-1-7 1l2 2c6 3 26 3 33 0 2-1 2-1 2 3l-1 20 0 17-4 3-3 1c-9 2-26 1-29-2-1-2-2-43-1-45 2-3 22-5 32-2zm55 1l4 1c2 2 2 2 1 2-4 1-10 6-14 13l-1 2-12-2c-2-1 8-12 14-15 3-2 5-2 8-1zm72 4l0 4-4 0c-3 0-3 0-3-4l0-3 2 0c5-1 5-1 5 3zm46-2l10 1c3 1 7 1 7 2 4 2 15 18 14 20-1 1-3 0-6-5-2-4-8-12-10-13-2-2-18-4-19-4-3 2-2 3 7 5l9 2c2 1 12 17 11 19 0 2-3 0-6-5-7-10-8-11-17-13-7-2-8-2-8 0-1 2 0 2 5 3 9 3 8 2 12 7 3 4 6 9 5 9-1 2-2 1-7-4-5-5-5-5-11-6-5-1-3-1-11 3-9 5-18 7-25 5-4-2-4-2-5-1-2 1-40 6-54 7-6 1-24 1-26 1-2 0-2 0-2-2 0-6 5-16 11-22 3-3 4-4 8-3 15 4 35 5 57 5 15 0 17-1 34-8 12-4 11-4 17-3zm-156 4c-2 2-6 13-6 16l0 1c-1 0-1-1-1-4 1-5 2-8 5-11l2-2 1-1-1 1zm-54 4c0 1 0 1-2 1-4 0-7 5-7 13 1 6 3 10 8 10l1 1c0 2 0 2-4 1-2 0-6-3-7-6-1-4-1-12 0-15 2-4 5-7 9-7 2 0 2 0 2 2zm62 1l4 1-2 3-4 11 0 3-3-1c-5 0-5 0-5-2 0-3 2-10 4-15 1-3 1-3 6 0zm235 2l37 10c8 1 18 4 22 5l13 4c9 2 11 3 10 3 0 0-11 3-25 5l-10 2-5 1c0-1 0 0 0 0l-2 0-2 1c0-1-1 0-1 0l-1 0-1 0-1 0-1 0c0 1-1 1-2 1l-4 0-34 6-26 5-2 2-1 1-34-10-12-4-1 0-1 0-1 0-1-1-1 0-1 0-1-1c0 1 0 0-1 0l-1 0c0 0 0-1-1 0l-1-1-14-4-17-4-5-2 4 1c5 1 11 1 17-1 2-1 7-2 13-2l11-2 2 3c5 5 9 6 12 3 1-1 1-1 2 0l4 0 15 4 13 5 1 0 1 0 1 0 0 1 1 0 1 0 1 0 0 1 1 0 8 3c9 2 7 2 20 0l9-2 2 0 1-1 1 0 1 0 1 0c0 0 0-1 1 0l1-1 1 0 1 0 1 0 2-1 10-2 33-6 1-1c1-1 0-2-7-4-4 0-16-4-29-7l-28-7c-6-1-6-1-6-3-1-2-1-2 5 0zm-297 9c0 6 0 7-1 7-2 0-3-5-3-9 1-2 2-4 3-4 1 0 1 0 1 6zm264-2c1 2 1 2-2 1-2-1-2-1-1-2l3 1zm30-1c4 1 4 1 1 2-3 2-9 1-6-1l2-1 3 0zm-220 2l6 1-1 3-1 8c0 6 1 5-5 5-3-1-6-2-7-4-1-2-1-8 0-11l2-4 6 2zm233 2l3 1-2 1c-3 1-3 1-6 0-3-1-4-1-1-2 3-1 2-1 6 0zm-53 0l3 0c1 0 1 1-1 1-2 1-2 1-5 0l-3-1c0 0 1-1 2 0l4 0zm30 1l-2 1c-3 1-2 1-5 0-5-1 2-2 7-1zm-79 0l1 0c0 1-4 1-5 1l3-1 1 0zm65 3c1 0 1 0-1 1l-2 1-4-1-4-1 3-1 3-1c0 0 5 1 5 2zm51 0c4 1 4 0-1 2-1 0-8-1-8-2l5-1 4 1zm-27 0c3 1 3 1 2 1l-2 1c-1 1-2 1-6 0l-3-1 3-1c3-1 3-1 6 0zm-36 4l21 7 14 4c3 1 5 2 3 1-1 0-2 0-2 1l-1 0-1 0-1 0-1 0-1 1c0-1-1 0-1 0l-2 0-3 0-1 0-1 0-1-1-5-1-27-10c-9-2-12-3-9-3 2 0 4 0 5-2l2-1 12 4zm50-1c3 1 3 1-1 2-3 1-9 0-9-1l6-2 4 1zm-28 0c3 1 4 1 1 2-2 1-2 1-6 0l-3-1 2-1c3-1 4-1 6 0zm59 1c6 2 6 2 4 2-4 2-6 2-9 0l-6-1-3-1 3-1c3-1 3-1 11 1zm-281 1c2 0 2 0 3 2 1 2 1 2-1 2-4 1-6 0-7-3-1-1-1-1 1-1l4 0zm266 3l6 1-3 1c-4 1-5 1-11-1-5-1-5-1-3-2l5-1 6 2zm-31-1c3 1 3 1 2 1l-3 1c-1 1-1 1-4 0-3-1-3-1-2-2 2-1 4-1 7 0zm16 4c5 1 5 2 0 3l-7-1c-5-1-5-1-5-2l7-1 5 1zm72 2c0 2-1 2-6 3l-6 1-2 0-1 1-1 0-1 0-1 0-1 0-1 0-2 1-1 0-1 0-9 2c-65 11-80 14-82 12-1 0 1-1 8-2l15-3 14-2 25-5 17-3 2 0 1 0 1-1 2 0 1 0 1 0 1 0 1-1c0 1 1 0 1 0l1 0 1 0 2 0c1-1 5-1 10-2 11-3 11-3 11-1zm-262-212c-2 1-5 3-5 5l6 1c6 0 8 0 15 2 5 2 6 2 6-1 0-2-5-5-14-7-5-1-5-1-8 0zm43 5c-7 1-11 2-11 5 0 1 2 2 3 2 0-1 1-1 2-1l2 0 13 0c2 1 2 1 2-1 0-4-3-5-11-5zm-69 4l1 3c2 1 2 4 1 5-2 2 0 9 3 8 1 0 1-1 0-3-1-2-1-2 0-3 2-2 2-3 0-7-1-2-4-4-5-3zm27 1l5 0 7 1c2 2 3 2 1 1-2-2-13-4-13-2zm1 1l-1 1c0-1-1 0-1 0l-2 0c-1 0-2 1-1 2l1 1 1 0c1 1 2 1 2 0l1-1c2-1 3-1 2 1 0 1 2 3 4 3 2 0 4-1 4-3 0-1 0-1 2 1 1 2 2 2 3 1l-3-4c-3-2-11-3-12-2zm37 3l-3 1 2 0c2-1 5-1 7 0l2 0c0-1-6-2-8-1zm-1 2c-4 1-6 4-4 4l2-1c1-1 1-1 1 0 0 2 2 3 4 3l3-3c0-1 1-1 2 0l1 1c-1 1 0 1 1 1 3 0 4-1 1-3-3-3-8-4-11-2zm-9 0c-2 2-2 14-1 16 2 2 3 0 2-3l0-10c2-4 1-5-1-3zm-26 2c-1 2 2 3 6 3l3-1c0-1 0-1-3-1l-5-1-1 0zm33 5c0 1 6 2 8 1 2-1 1-1-2-1l-5-1-1 1zm-23 11c-2 2-1 6 2 6 1 0 1-1 0-2-1-1-1-2 0-3 1-2 0-3-2-1zm17 2l-1 1c0 1 0 2-1 2-3 0-5 2-4 3l2 0c1-1 1-1 2 0 2 1 5-3 4-5-1-2-2-2-2-1zm-14 2l2 2 1 0c1 1 2 0 2 0l0-2c-1-1-4-1-5 0zm-11 4c-3 0-4 1-4 2l2 2c0-1 4-1 11 0 6 0 7 0 7-3 0-1 0-1-2-1-2 0-11-1-14 0zm18 2c-1 1 0 2 2 3l10 3 1-1c2-1 0-3-2-4l-3-1c-4-1-7-2-8 0zm-18 3c-1 1 2 3 6 4l6 1c7 1 16 1 16-1 0-2-1-2-2-1l-10 0-4-1-5-1-4-1c-2-1-2-1-3 0zm5 8l4 4c4 1 9 1 11-1 2-2 1-3 0-2-3 1-8 0-11-1-3-1-3-1-4 0zm199-13c-2 1-3 5-1 7 2 2 7-1 6-5-1-2-3-3-5-2zm17 7c-3 3-1 9 3 7 3-2 4-6 2-7-2-2-4-2-5 0zm-14 4c-1 0-1 1 0 3 2 4 7 5 10 2 1-2 0-4-2-3-2 2-5 1-5-1 0-2-2-2-3-1zm8 35c-2 1-2 2-1 3 1 1 3 1 4 0 1-3-1-5-3-3zm-200 30l-3 7c-9 17-14 25-20 32-3 4 0 7 3 3 9-8 24-37 23-41l-3-1zm201-3l-22 34c-3 6-4 7-2 9 2 2 3 1 7-4 24-39 23-36 21-38-1-1-3-2-4-1zm-24 3l-2 2-1 1-1 1-7 5c-6 6-7 7-6 9l1 2 1 1 0 1c0 0 7 11 8 11 2 1 5-1 5-3l-5-7-4-6 7-6c8-6 9-7 8-9-1-2-2-3-4-2zm31 6l-1 4 1 1 1 1 3 5c4 6 4 5 2 6l-2 2-6 4c-6 5-7 6-5 8 2 2 3 2 12-5 12-9 11-8 6-16l-5-7c-3-4-4-5-6-3zm-331 9c-1 1-1 1 1 5 2 3 2 5-1 9-3 6-4 8-1 12l2 3c0 2 2 3 3 2 2-2 1-4 0-6-2-4-2-5 1-8 2-4 3-5 3-9-1-6-6-12-8-8zm13 6c-1 0-1 1-1 3l-1 5c-2 4-2 6 0 9 2 2 2 3 1 5-2 3 1 4 3 2 3-2 3-7 0-10-1-1 0-2 1-5l2-4c0-4-3-7-5-5zm69 10c-1 1-2 5 0 6 1 2 3 1 4-1 1-3-1-6-4-5zm-39-152c-1 1-1 3 1 5 8 9 10 11 12 9 1-1 1-2 0-4-10-11-11-12-13-10zm334 14l-10 11c0 2 2 4 4 3l11-11c1-3-3-5-5-3zm-343 10c-1 2-1 2 0 4 1 1 1 1 8 1 9 0 10-1 10-4 0-2-1-2-9-2-7 0-7 0-9 1zm348 9c-7 3-8 3-7 6 1 1 3 1 9-1 6-3 7-3 7-5 0-3-2-3-9 0zm-329 3l-11 9c-2 2-1 5 2 5 2 0 13-10 13-12 0-2-2-3-4-2z"/></svg>
